<svg version="1.0" xmlns="http://www.w3.org/2000/svg" width="682.667" height="682.667" viewBox="0 0 512 512"><path d="M242 .6c-32.2 4-59.1 17.1-81.5 39.8-19.9 20.1-31.3 41.5-37.2 69.6-2.4 11.8-2.4 38.2 0 50 5.9 28.1 17.4 49.6 37.2 69.6 20.1 20.3 42.1 32.2 70.5 38.1 11.7 2.4 38 2.4 50.2 0 27-5.4 49.4-17.4 69.4-37.2 20.2-19.9 32.2-42.1 38.1-70.5 2.4-11.8 2.4-38.2 0-50-3.9-18.5-11-35.6-21.2-51-6.3-9.5-25.8-29.1-35.1-35.2-16.1-10.7-33.5-18-50.6-21.3C273.7.9 249-.3 242 .6zM202.3 301.6c-56 6.8-106.5 38.5-139 87.4-19.1 28.6-30 62.4-31.9 98.5-.6 11.1-.5 12.4 1.5 16.3 1.4 2.8 3.4 4.8 6.1 6.2 3.9 2 5.4 2 217 2s213.1 0 217-2c2.7-1.4 4.7-3.4 6.1-6.2 2-3.9 2.1-5.2 1.5-16.3-2.6-49.3-21.4-92.5-55.6-127.9-32.4-33.5-74.2-53.9-119.9-58.6-15.1-1.5-88.9-1.1-102.8.6z"/></svg>