<?xml version="1.0" encoding="UTF-8"?>
<svg xmlns="http://www.w3.org/2000/svg" xmlns:xlink="http://www.w3.org/1999/xlink" viewBox="0 0 480 480" width="480px" height="480px">
<g id="surface46447451">
<path style=" stroke:none;fill-rule:nonzero;fill:rgb(13.333334%,77.254903%,36.862746%);fill-opacity:1;" d="M 7.40625 240 C 7.40625 111.5625 111.5625 7.40625 240 7.40625 C 368.4375 7.40625 472.59375 111.5625 472.59375 240 C 472.59375 368.4375 368.4375 472.59375 240 472.59375 C 111.5625 472.59375 7.40625 368.4375 7.40625 240 Z M 7.40625 240 "/>
<path style=" stroke:none;fill-rule:nonzero;fill:rgb(100%,100%,100%);fill-opacity:1;" d="M 408.9375 168.84375 C 399.28125 168.84375 389.53125 168.9375 379.875 168.9375 C 358.03125 120 315.1875 84.65625 261.1875 76.21875 C 200.8125 66.75 143.15625 94.6875 108.75 144 C 93.46875 165.84375 129.375 186.375 144.5625 164.625 C 191.71875 97.125 292.5 103.21875 333.84375 169.03125 C 324.84375 169.03125 315.9375 169.03125 306.9375 169.125 C 304.40625 169.125 302.625 170.25 301.59375 171.84375 C 299.8125 173.8125 299.0625 176.625 301.03125 179.53125 C 318.09375 205.96875 335.15625 232.5 352.21875 258.9375 C 355.125 263.34375 361.3125 263.34375 364.125 258.9375 C 381.09375 232.40625 397.96875 205.78125 414.9375 179.25 C 417.65625 174.75 413.90625 168.84375 408.9375 168.84375 Z M 335.90625 314.15625 C 289.125 381.1875 189.5625 375.65625 147.5625 311.34375 C 156.1875 311.34375 164.71875 311.34375 173.34375 311.25 C 175.875 311.25 177.65625 310.125 178.6875 308.53125 C 180.46875 306.5625 181.21875 303.75 179.25 300.84375 C 162.1875 274.40625 145.125 247.875 128.0625 221.4375 C 125.15625 216.9375 118.96875 217.03125 116.15625 221.4375 C 99.1875 247.96875 82.3125 274.59375 65.34375 301.125 C 62.53125 305.53125 66.1875 311.4375 71.25 311.4375 C 81.28125 311.4375 91.21875 311.34375 101.25 311.34375 C 123.28125 359.4375 165.75 394.125 219.28125 402.5625 C 279.5625 412.03125 337.21875 384 371.625 334.78125 C 386.90625 312.9375 351 292.5 335.90625 314.15625 Z M 335.90625 314.15625 "/>
</g>
</svg>
